<svg width="19" height="23" viewBox="0 0 19 23" fill="none" xmlns="http://www.w3.org/2000/svg">
<path d="M13.6291 6.06135V4.82853C13.6291 4.71553 13.5402 4.62306 13.4316 4.62306H3.95042C3.84178 4.62306 3.7529 4.71553 3.7529 4.82853V6.06135C3.7529 6.17436 3.84178 6.26682 3.95042 6.26682H13.4316C13.5402 6.26682 13.6291 6.17436 13.6291 6.06135ZM3.95042 8.32152C3.84178 8.32152 3.7529 8.41398 3.7529 8.52699V9.7598C3.7529 9.87281 3.84178 9.96527 3.95042 9.96527H8.49347C8.60211 9.96527 8.691 9.87281 8.691 9.7598V8.52699C8.691 8.41398 8.60211 8.32152 8.49347 8.32152H3.95042ZM13.2341 11.3008C10.2885 11.3008 7.9009 13.7844 7.9009 16.8485C7.9009 19.9126 10.2885 22.3962 13.2341 22.3962C16.1796 22.3962 18.5672 19.9126 18.5672 16.8485C18.5672 13.7844 16.1796 11.3008 13.2341 11.3008ZM15.8883 19.6095C15.1797 20.3466 14.2365 20.7524 13.2341 20.7524C12.2316 20.7524 11.2884 20.3466 10.5798 19.6095C9.8712 18.8724 9.48109 17.8913 9.48109 16.8485C9.48109 15.8057 9.8712 14.8246 10.5798 14.0875C11.2884 13.3504 12.2316 12.9446 13.2341 12.9446C14.2365 12.9446 15.1797 13.3504 15.8883 14.0875C16.5969 14.8246 16.987 15.8057 16.987 16.8485C16.987 17.8913 16.5969 18.8724 15.8883 19.6095ZM15.4315 14.8965H14.3377C14.2735 14.8965 14.2143 14.9274 14.1772 14.9813L12.6094 17.2363L12.039 16.417C12.0208 16.3906 11.9966 16.369 11.9687 16.3543C11.9408 16.3395 11.9099 16.332 11.8785 16.3323H10.7897C10.6292 16.3323 10.5354 16.5223 10.6292 16.6584L12.4514 19.2807C12.5304 19.3938 12.6909 19.3938 12.7699 19.2807L15.5895 15.2227C15.6858 15.0866 15.592 14.8965 15.4315 14.8965ZM7.50585 19.9305H1.77766V1.84923H15.6043V10.6844C15.6043 10.7974 15.6932 10.8899 15.8019 10.8899H17.1845C17.2932 10.8899 17.3821 10.7974 17.3821 10.6844V0.821878C17.3821 0.367277 17.029 0 16.592 0H0.790035C0.353013 0 -6.10352e-05 0.367277 -6.10352e-05 0.821878V20.9579C-6.10352e-05 21.4125 0.353013 21.7798 0.790035 21.7798H7.50585C7.61449 21.7798 7.70338 21.6873 7.70338 21.5743V20.136C7.70338 20.023 7.61449 19.9305 7.50585 19.9305Z" fill="white"/>
</svg>
